<?xml version="1.0" encoding="UTF-8" standalone="no"?>
<svg width="1187px" height="615px" viewBox="0 0 1187 615" version="1.1" xmlns="http://www.w3.org/2000/svg" xmlns:xlink="http://www.w3.org/1999/xlink" xmlns:sketch="http://www.bohemiancoding.com/sketch/ns">
    <!-- Generator: Sketch 3.4.2 (15855) - http://www.bohemiancoding.com/sketch -->
    <title>section2</title>
    <desc>Created with Sketch.</desc>
    <defs>
        <path id="path-1" d="M0,0.193 L730.804,0.193 L730.804,605 L0,605 L0,0.193 Z"></path>
    </defs>
    <g id="Page-1" stroke="none" stroke-width="1" fill="none" fill-rule="evenodd" sketch:type="MSPage">
        <g id="section2" sketch:type="MSArtboardGroup">
            <g id="Page-1" sketch:type="MSLayerGroup" transform="translate(228.000000, 4.000000)">
                <path d="M730.8037,217.193 C730.8037,250.743 703.3537,278.193 669.8037,278.193 L307.8037,278.193 C274.2537,278.193 246.8037,250.743 246.8037,217.193 L246.8037,61.193 C246.8037,27.643 274.2537,0.193 307.8037,0.193 L669.8037,0.193 C703.3537,0.193 730.8037,27.643 730.8037,61.193 L730.8037,217.193 Z" id="Fill-1" fill="#FFFFFF" sketch:type="MSShapeGroup"></path>
                <mask id="mask-2" sketch:name="Clip 4" fill="white">
                    <use xlink:href="#path-1"></use>
                </mask>
                <g id="Clip-4"></g>
                <path d="M333.614,77.919 L337.73,77.919 L337.73,93.476 L333.614,93.476 L333.614,77.919 Z M333.614,72.001 L337.73,72.001 L337.73,75.81 L333.614,75.81 L333.614,72.001 Z" id="Fill-3" fill="#000000" sketch:type="MSShapeGroup" mask="url(#mask-2)"></path>
                <path d="M340.1475,77.9186 L342.4325,77.9186 L342.4325,76.7466 C342.4325,75.4386 342.5715,74.4616 342.8505,73.8166 C343.1275,73.1726 343.6415,72.6476 344.3875,72.2426 C345.1355,71.8376 346.0805,71.6346 347.2225,71.6346 C348.3945,71.6346 349.5425,71.8106 350.6655,72.1616 L350.1085,75.0326 C349.4545,74.8766 348.8245,74.7986 348.2185,74.7986 C347.6235,74.7986 347.1965,74.9386 346.9365,75.2156 C346.6785,75.4946 346.5485,76.0286 346.5485,76.8196 L346.5485,77.9186 L349.6255,77.9186 L349.6255,81.1556 L346.5485,81.1556 L346.5485,93.4756 L342.4325,93.4756 L342.4325,81.1556 L340.1475,81.1556 L340.1475,77.9186 Z" id="Fill-5" fill="#000000" sketch:type="MSShapeGroup" mask="url(#mask-2)"></path>
                <path d="M358.3262,77.9186 L362.7062,77.9186 L366.4272,88.9636 L370.0592,77.9186 L374.3222,77.9186 L368.8292,92.8896 L367.8472,95.5996 C367.4862,96.5076 367.1412,97.2006 366.8152,97.6796 C366.4872,98.1576 366.1122,98.5456 365.6862,98.8446 C365.2632,99.1416 364.7392,99.3736 364.1202,99.5396 C363.4992,99.7056 362.7992,99.7886 362.0172,99.7886 C361.2262,99.7886 360.4502,99.7056 359.6882,99.5396 L359.3222,96.3166 C359.9672,96.4436 360.5482,96.5076 361.0652,96.5076 C362.0222,96.5076 362.7302,96.2266 363.1892,95.6646 C363.6482,95.1036 364.0002,94.3886 364.2442,93.5196 L358.3262,77.9186 Z" id="Fill-6" fill="#000000" sketch:type="MSShapeGroup" mask="url(#mask-2)"></path>
                <path d="M380.2256,85.6969 C380.2256,87.2399 380.5916,88.4219 381.3246,89.2419 C382.0566,90.0619 382.9596,90.4719 384.0346,90.4719 C385.1086,90.4719 386.0086,90.0619 386.7376,89.2419 C387.4636,88.4219 387.8286,87.2299 387.8286,85.6679 C387.8286,84.1439 387.4636,82.9719 386.7376,82.1519 C386.0086,81.3319 385.1086,80.9219 384.0346,80.9219 C382.9596,80.9219 382.0566,81.3319 381.3246,82.1519 C380.5916,82.9719 380.2256,84.1539 380.2256,85.6969 M376.0066,85.4769 C376.0066,84.1099 376.3436,82.7869 377.0176,81.5079 C377.6916,80.2279 378.6456,79.2519 379.8816,78.5779 C381.1166,77.9039 382.4966,77.5669 384.0196,77.5669 C386.3726,77.5669 388.3016,78.3319 389.8056,79.8599 C391.3096,81.3879 392.0616,83.3189 392.0616,85.6529 C392.0616,88.0069 391.3016,89.9579 389.7846,91.5049 C388.2646,93.0529 386.3536,93.8269 384.0486,93.8269 C382.6226,93.8269 381.2626,93.5049 379.9696,92.8599 C378.6746,92.2159 377.6916,91.2699 377.0176,90.0259 C376.3436,88.7799 376.0066,87.2639 376.0066,85.4769" id="Fill-7" fill="#000000" sketch:type="MSShapeGroup" mask="url(#mask-2)"></path>
                <path d="M405.5234,93.4752 L405.5234,91.1462 C404.9574,91.9762 404.2114,92.6302 403.2904,93.1092 C402.3664,93.5872 401.3924,93.8272 400.3674,93.8272 C399.3224,93.8272 398.3844,93.5972 397.5544,93.1382 C396.7244,92.6792 396.1244,92.0352 395.7524,91.2042 C395.3814,90.3742 395.1964,89.2272 395.1964,87.7622 L395.1964,77.9182 L399.3124,77.9182 L399.3124,85.0672 C399.3124,87.2542 399.3874,88.5952 399.5404,89.0882 C399.6904,89.5812 399.9664,89.9722 400.3674,90.2602 C400.7674,90.5482 401.2754,90.6922 401.8904,90.6922 C402.5934,90.6922 403.2234,90.4992 403.7804,90.1142 C404.3364,89.7282 404.7174,89.2482 404.9224,88.6782 C405.1274,88.1062 405.2304,86.7072 405.2304,84.4812 L405.2304,77.9182 L409.3464,77.9182 L409.3464,93.4752 L405.5234,93.4752 Z" id="Fill-8" fill="#000000" sketch:type="MSShapeGroup" mask="url(#mask-2)"></path>
                <path d="M425.2402,85.3746 C425.2402,87.0246 425.5592,88.2336 426.2002,89.0006 C426.8392,89.7676 427.6282,90.1496 428.5652,90.1496 C429.5712,90.1496 430.4212,89.7576 431.1142,88.9716 C431.8072,88.1856 432.1542,87.0206 432.1542,85.4776 C432.1542,83.8656 431.8222,82.6696 431.1582,81.8886 C430.4942,81.1066 429.6542,80.7166 428.6382,80.7166 C427.6522,80.7166 426.8392,81.1006 426.2002,81.8656 C425.5592,82.6336 425.2402,83.8026 425.2402,85.3746 M421.5632,94.5006 L426.2652,95.0716 C426.3442,95.6186 426.5242,95.9946 426.8072,96.1996 C427.1982,96.4926 427.8132,96.6396 428.6532,96.6396 C429.7272,96.6396 430.5332,96.4786 431.0702,96.1556 C431.4312,95.9406 431.7052,95.5946 431.8902,95.1156 C432.0172,94.7736 432.0812,94.1446 432.0812,93.2266 L432.0812,90.9556 C430.8502,92.6356 429.2982,93.4756 427.4232,93.4756 C425.3332,93.4756 423.6782,92.5916 422.4572,90.8236 C421.5002,89.4276 421.0212,87.6886 421.0212,85.6086 C421.0212,83.0016 421.6492,81.0096 422.9032,79.6326 C424.1592,78.2556 425.7192,77.5666 427.5842,77.5666 C429.5082,77.5666 431.0942,78.4116 432.3442,80.1016 L432.3442,77.9186 L436.1972,77.9186 L436.1972,91.8786 C436.1972,93.7146 436.0462,95.0866 435.7432,95.9946 C435.4402,96.9026 435.0152,97.6156 434.4692,98.1336 C433.9222,98.6506 433.1922,99.0566 432.2782,99.3496 C431.3662,99.6426 430.2112,99.7886 428.8142,99.7886 C426.1772,99.7886 424.3072,99.3366 423.2042,98.4346 C422.1002,97.5296 421.5492,96.3856 421.5492,94.9986 C421.5492,94.8616 421.5532,94.6956 421.5632,94.5006" id="Fill-9" fill="#000000" sketch:type="MSShapeGroup" mask="url(#mask-2)"></path>
                <path d="M440.27,77.919 L444.386,77.919 L444.386,93.476 L440.27,93.476 L440.27,77.919 Z M440.27,72.001 L444.386,72.001 L444.386,75.81 L440.27,75.81 L440.27,72.001 Z" id="Fill-10" fill="#000000" sketch:type="MSShapeGroup" mask="url(#mask-2)"></path>
                <path d="M452.8818,93.4752 L446.6118,77.9182 L450.9338,77.9182 L453.8628,85.8582 L454.7128,88.5092 C454.9378,87.8352 455.0788,87.3912 455.1378,87.1762 C455.2748,86.7372 455.4208,86.2972 455.5768,85.8582 L458.5358,77.9182 L462.7698,77.9182 L456.5878,93.4752 L452.8818,93.4752 Z" id="Fill-11" fill="#000000" sketch:type="MSShapeGroup" mask="url(#mask-2)"></path>
                <path d="M474.5322,84.3639 C474.5032,83.1729 474.1952,82.2669 473.6092,81.6469 C473.0232,81.0269 472.3102,80.7169 471.4702,80.7169 C470.5722,80.7169 469.8302,81.0439 469.2442,81.6979 C468.6582,82.3519 468.3702,83.2409 468.3802,84.3639 L474.5322,84.3639 Z M474.2982,88.5239 L478.3992,89.2129 C477.8722,90.7169 477.0402,91.8619 475.9012,92.6469 C474.7642,93.4339 473.3412,93.8269 471.6322,93.8269 C468.9272,93.8269 466.9252,92.9429 465.6262,91.1759 C464.6002,89.7599 464.0882,87.9719 464.0882,85.8139 C464.0882,83.2359 464.7612,81.2179 466.1092,79.7569 C467.4572,78.2979 469.1612,77.5669 471.2212,77.5669 C473.5362,77.5669 475.3622,78.3319 476.7002,79.8599 C478.0382,81.3879 478.6782,83.7289 478.6192,86.8839 L468.3062,86.8839 C468.3362,88.1039 468.6682,89.0539 469.3032,89.7329 C469.9372,90.4119 470.7282,90.7509 471.6762,90.7509 C472.3202,90.7509 472.8622,90.5749 473.3022,90.2229 C473.7412,89.8719 474.0732,89.3049 474.2982,88.5239 L474.2982,88.5239 Z" id="Fill-12" fill="#000000" sketch:type="MSShapeGroup" mask="url(#mask-2)"></path>
                <path d="M490.001,77.9186 L493.795,77.9186 L493.795,80.0426 C495.152,78.3926 496.769,77.5666 498.644,77.5666 C499.64,77.5666 500.504,77.7726 501.236,78.1826 C501.969,78.5926 502.569,79.2126 503.038,80.0426 C503.722,79.2126 504.459,78.5926 505.25,78.1826 C506.041,77.7726 506.886,77.5666 507.784,77.5666 C508.927,77.5666 509.894,77.7996 510.685,78.2626 C511.476,78.7276 512.066,79.4076 512.457,80.3066 C512.74,80.9706 512.882,82.0446 512.882,83.5286 L512.882,93.4756 L508.766,93.4756 L508.766,84.5836 C508.766,83.0406 508.624,82.0446 508.341,81.5956 C507.96,81.0096 507.374,80.7166 506.583,80.7166 C506.007,80.7166 505.465,80.8926 504.957,81.2436 C504.449,81.5956 504.083,82.1106 503.858,82.7896 C503.634,83.4686 503.522,84.5396 503.522,86.0046 L503.522,93.4756 L499.405,93.4756 L499.405,84.9496 C499.405,83.4366 499.332,82.4596 499.186,82.0206 C499.039,81.5806 498.812,81.2536 498.505,81.0386 C498.196,80.8236 497.779,80.7166 497.252,80.7166 C496.617,80.7166 496.046,80.8876 495.538,81.2296 C495.03,81.5706 494.667,82.0646 494.446,82.7086 C494.228,83.3536 494.117,84.4226 494.117,85.9166 L494.117,93.4756 L490.001,93.4756 L490.001,77.9186 Z" id="Fill-13" fill="#000000" sketch:type="MSShapeGroup" mask="url(#mask-2)"></path>
                <path d="M526.2266,84.3639 C526.1976,83.1729 525.8896,82.2669 525.3036,81.6469 C524.7176,81.0269 524.0046,80.7169 523.1646,80.7169 C522.2666,80.7169 521.5246,81.0439 520.9386,81.6979 C520.3526,82.3519 520.0646,83.2409 520.0746,84.3639 L526.2266,84.3639 Z M525.9926,88.5239 L530.0936,89.2129 C529.5666,90.7169 528.7336,91.8619 527.5966,92.6469 C526.4576,93.4339 525.0356,93.8269 523.3266,93.8269 C520.6216,93.8269 518.6196,92.9429 517.3206,91.1759 C516.2946,89.7599 515.7826,87.9719 515.7826,85.8139 C515.7826,83.2359 516.4556,81.2179 517.8036,79.7569 C519.1516,78.2979 520.8556,77.5669 522.9156,77.5669 C525.2306,77.5669 527.0566,78.3319 528.3946,79.8599 C529.7326,81.3879 530.3726,83.7289 530.3136,86.8839 L520.0006,86.8839 C520.0306,88.1039 520.3626,89.0539 520.9976,89.7329 C521.6316,90.4119 522.4226,90.7509 523.3706,90.7509 C524.0146,90.7509 524.5566,90.5749 524.9966,90.2229 C525.4356,89.8719 525.7676,89.3049 525.9926,88.5239 L525.9926,88.5239 Z" id="Fill-14" fill="#000000" sketch:type="MSShapeGroup" mask="url(#mask-2)"></path>
                <path d="M550.5869,86.0045 C550.0599,86.1805 549.2249,86.3905 548.0819,86.6345 C546.9399,86.8785 546.1919,87.1175 545.8409,87.3525 C545.3039,87.7335 545.0349,88.2165 545.0349,88.8025 C545.0349,89.3785 545.2499,89.8765 545.6799,90.2965 C546.1089,90.7165 546.6559,90.9265 547.3199,90.9265 C548.0629,90.9265 548.7709,90.6825 549.4439,90.1935 C549.9419,89.8225 550.2699,89.3685 550.4259,88.8315 C550.5329,88.4805 550.5869,87.8115 550.5869,86.8245 L550.5869,86.0045 Z M545.0789,82.6645 L541.3439,81.9905 C541.7639,80.4865 542.4859,79.3735 543.5119,78.6505 C544.5369,77.9285 546.0609,77.5665 548.0819,77.5665 C549.9179,77.5665 551.2849,77.7845 552.1839,78.2195 C553.0819,78.6535 553.7139,79.2055 554.0809,79.8735 C554.4459,80.5435 554.6299,81.7715 554.6299,83.5585 L554.5859,88.3625 C554.5859,89.7305 554.6509,90.7385 554.7839,91.3875 C554.9149,92.0375 555.1619,92.7335 555.5239,93.4755 L551.4509,93.4755 C551.3439,93.2015 551.2119,92.7965 551.0559,92.2595 C550.9869,92.0155 550.9389,91.8545 550.9089,91.7755 C550.2059,92.4595 549.4539,92.9725 548.6529,93.3145 C547.8529,93.6555 546.9979,93.8265 546.0899,93.8265 C544.4879,93.8265 543.2259,93.3925 542.3039,92.5235 C541.3799,91.6535 540.9189,90.5555 540.9189,89.2275 C540.9189,88.3485 541.1289,87.5655 541.5489,86.8755 C541.9689,86.1885 542.5579,85.6605 543.3139,85.2935 C544.0709,84.9285 545.1619,84.6085 546.5879,84.3345 C548.5119,83.9735 549.8449,83.6365 550.5869,83.3235 L550.5869,82.9135 C550.5869,82.1225 550.3919,81.5595 550.0009,81.2215 C549.6099,80.8855 548.8729,80.7165 547.7889,80.7165 C547.0569,80.7165 546.4849,80.8605 546.0749,81.1495 C545.6649,81.4375 545.3329,81.9425 545.0789,82.6645 L545.0789,82.6645 Z" id="Fill-15" fill="#000000" sketch:type="MSShapeGroup" mask="url(#mask-2)"></path>
                <path d="M572.252,82.5182 L568.194,83.2502 C568.058,82.4402 567.747,81.8302 567.265,81.4192 C566.78,81.0092 566.153,80.8042 565.382,80.8042 C564.356,80.8042 563.538,81.1592 562.929,81.8662 C562.317,82.5752 562.013,83.7582 562.013,85.4182 C562.013,87.2642 562.323,88.5682 562.942,89.3302 C563.564,90.0912 564.396,90.4722 565.44,90.4722 C566.222,90.4722 566.861,90.2502 567.359,89.8052 C567.857,89.3622 568.209,88.5972 568.414,87.5132 L572.457,88.2022 C572.037,90.0572 571.231,91.4582 570.04,92.4062 C568.849,93.3532 567.252,93.8272 565.25,93.8272 C562.975,93.8272 561.161,93.1092 559.808,91.6732 C558.456,90.2382 557.779,88.2502 557.779,85.7112 C557.779,83.1432 558.458,81.1442 559.815,79.7132 C561.173,78.2832 563.009,77.5672 565.323,77.5672 C567.218,77.5672 568.724,77.9752 569.843,78.7892 C570.96,79.6062 571.764,80.8482 572.252,82.5182" id="Fill-16" fill="#000000" sketch:type="MSShapeGroup" mask="url(#mask-2)"></path>
                <path d="M588.9365,82.5182 L584.8785,83.2502 C584.7425,82.4402 584.4325,81.8302 583.9485,81.4192 C583.4655,81.0092 582.8375,80.8042 582.0665,80.8042 C581.0405,80.8042 580.2235,81.1592 579.6125,81.8662 C579.0025,82.5752 578.6975,83.7582 578.6975,85.4182 C578.6975,87.2642 579.0065,88.5682 579.6275,89.3302 C580.2475,90.0912 581.0805,90.4722 582.1245,90.4722 C582.9065,90.4722 583.5455,90.2502 584.0435,89.8052 C584.5415,89.3622 584.8935,88.5972 585.0985,87.5132 L589.1415,88.2022 C588.7215,90.0572 587.9155,91.4582 586.7245,92.4062 C585.5335,93.3532 583.9365,93.8272 581.9345,93.8272 C579.6595,93.8272 577.8445,93.1092 576.4935,91.6732 C575.1395,90.2382 574.4635,88.2502 574.4635,85.7112 C574.4635,83.1432 575.1425,81.1442 576.4995,79.7132 C577.8575,78.2832 579.6935,77.5672 582.0075,77.5672 C583.9025,77.5672 585.4095,77.9752 586.5265,78.7892 C587.6455,79.6062 588.4485,80.8482 588.9365,82.5182" id="Fill-17" fill="#000000" sketch:type="MSShapeGroup" mask="url(#mask-2)"></path>
                <path d="M601.2998,84.3639 C601.2708,83.1729 600.9628,82.2669 600.3768,81.6469 C599.7908,81.0269 599.0778,80.7169 598.2378,80.7169 C597.3398,80.7169 596.5978,81.0439 596.0118,81.6979 C595.4258,82.3519 595.1378,83.2409 595.1478,84.3639 L601.2998,84.3639 Z M601.0658,88.5239 L605.1668,89.2129 C604.6398,90.7169 603.8078,91.8619 602.6688,92.6469 C601.5318,93.4339 600.1088,93.8269 598.3998,93.8269 C595.6948,93.8269 593.6928,92.9429 592.3938,91.1759 C591.3678,89.7599 590.8558,87.9719 590.8558,85.8139 C590.8558,83.2359 591.5288,81.2179 592.8768,79.7569 C594.2248,78.2979 595.9288,77.5669 597.9888,77.5669 C600.3038,77.5669 602.1298,78.3319 603.4678,79.8599 C604.8058,81.3879 605.4458,83.7289 605.3868,86.8839 L595.0738,86.8839 C595.1038,88.1039 595.4358,89.0539 596.0708,89.7329 C596.7048,90.4119 597.4958,90.7509 598.4438,90.7509 C599.0878,90.7509 599.6298,90.5749 600.0698,90.2229 C600.5088,89.8719 600.8408,89.3049 601.0658,88.5239 L601.0658,88.5239 Z" id="Fill-18" fill="#000000" sketch:type="MSShapeGroup" mask="url(#mask-2)"></path>
                <path d="M607.291,89.0367 L611.422,88.4067 C611.598,89.2077 611.954,89.8157 612.491,90.2307 C613.028,90.6457 613.78,90.8527 614.747,90.8527 C615.812,90.8527 616.612,90.6577 617.149,90.2667 C617.511,89.9937 617.691,89.6277 617.691,89.1687 C617.691,88.8557 617.594,88.5977 617.398,88.3917 C617.193,88.1967 616.734,88.0157 616.021,87.8497 C612.701,87.1177 610.597,86.4487 609.708,85.8437 C608.478,85.0037 607.862,83.8367 607.862,82.3427 C607.862,80.9947 608.395,79.8617 609.459,78.9437 C610.523,78.0257 612.174,77.5667 614.41,77.5667 C616.539,77.5667 618.121,77.9137 619.156,78.6067 C620.191,79.3007 620.904,80.3257 621.295,81.6827 L617.413,82.4007 C617.247,81.7957 616.933,81.3317 616.468,81.0097 C616.005,80.6867 615.343,80.5257 614.483,80.5257 C613.399,80.5257 612.623,80.6777 612.154,80.9797 C611.842,81.1947 611.686,81.4737 611.686,81.8147 C611.686,82.1077 611.822,82.3567 612.096,82.5617 C612.467,82.8357 613.749,83.2217 615.94,83.7197 C618.134,84.2177 619.664,84.8277 620.533,85.5507 C621.393,86.2827 621.822,87.3037 621.822,88.6117 C621.822,90.0377 621.227,91.2637 620.035,92.2887 C618.844,93.3137 617.081,93.8267 614.747,93.8267 C612.628,93.8267 610.95,93.3967 609.716,92.5377 C608.479,91.6787 607.672,90.5117 607.291,89.0367" id="Fill-19" fill="#000000" sketch:type="MSShapeGroup" mask="url(#mask-2)"></path>
                <path d="M623.9756,89.0367 L628.1066,88.4067 C628.2826,89.2077 628.6386,89.8157 629.1756,90.2307 C629.7126,90.6457 630.4646,90.8527 631.4316,90.8527 C632.4966,90.8527 633.2966,90.6577 633.8336,90.2667 C634.1956,89.9937 634.3756,89.6277 634.3756,89.1687 C634.3756,88.8557 634.2786,88.5977 634.0826,88.3917 C633.8776,88.1967 633.4186,88.0157 632.7056,87.8497 C629.3856,87.1177 627.2816,86.4487 626.3926,85.8437 C625.1626,85.0037 624.5466,83.8367 624.5466,82.3427 C624.5466,80.9947 625.0796,79.8617 626.1436,78.9437 C627.2076,78.0257 628.8586,77.5667 631.0946,77.5667 C633.2236,77.5667 634.8056,77.9137 635.8406,78.6067 C636.8756,79.3007 637.5886,80.3257 637.9796,81.6827 L634.0976,82.4007 C633.9316,81.7957 633.6166,81.3317 633.1536,81.0097 C632.6886,80.6867 632.0276,80.5257 631.1676,80.5257 C630.0836,80.5257 629.3076,80.6777 628.8386,80.9797 C628.5266,81.1947 628.3706,81.4737 628.3706,81.8147 C628.3706,82.1077 628.5066,82.3567 628.7806,82.5617 C629.1516,82.8357 630.4326,83.2217 632.6256,83.7197 C634.8176,84.2177 636.3486,84.8277 637.2176,85.5507 C638.0776,86.2827 638.5066,87.3037 638.5066,88.6117 C638.5066,90.0377 637.9116,91.2637 636.7196,92.2887 C635.5286,93.3137 633.7656,93.8267 631.4316,93.8267 C629.3126,93.8267 627.6356,93.3967 626.3996,92.5377 C625.1646,91.6787 624.3566,90.5117 623.9756,89.0367" id="Fill-20" fill="#000000" sketch:type="MSShapeGroup" mask="url(#mask-2)"></path>
                <path d="M340.748,113.9186 L340.748,117.1996 L337.935,117.1996 L337.935,123.4696 C337.935,124.7386 337.962,125.4796 338.017,125.6886 C338.069,125.8986 338.192,126.0716 338.382,126.2086 C338.573,126.3456 338.805,126.4136 339.078,126.4136 C339.459,126.4136 340.011,126.2816 340.733,126.0186 L341.085,129.2116 C340.128,129.6216 339.044,129.8266 337.833,129.8266 C337.091,129.8266 336.422,129.7016 335.826,129.4536 C335.23,129.2036 334.794,128.8816 334.515,128.4866 C334.237,128.0906 334.044,127.5566 333.936,126.8826 C333.849,126.4036 333.805,125.4376 333.805,123.9816 L333.805,117.1996 L331.915,117.1996 L331.915,113.9186 L333.805,113.9186 L333.805,110.8276 L337.935,108.4256 L337.935,113.9186 L340.748,113.9186 Z" id="Fill-21" fill="#000000" sketch:type="MSShapeGroup" mask="url(#mask-2)"></path>
                <path d="M346.8711,121.6969 C346.8711,123.2399 347.2371,124.4219 347.9701,125.2419 C348.7021,126.0619 349.6051,126.4719 350.6801,126.4719 C351.7541,126.4719 352.6551,126.0619 353.3821,125.2419 C354.1101,124.4219 354.4741,123.2299 354.4741,121.6679 C354.4741,120.1439 354.1101,118.9719 353.3821,118.1519 C352.6551,117.3319 351.7541,116.9219 350.6801,116.9219 C349.6051,116.9219 348.7021,117.3319 347.9701,118.1519 C347.2371,118.9719 346.8711,120.1539 346.8711,121.6969 M342.6521,121.4769 C342.6521,120.1099 342.9891,118.7869 343.6631,117.5079 C344.3371,116.2279 345.2921,115.2519 346.5261,114.5779 C347.7631,113.9039 349.1421,113.5669 350.6651,113.5669 C353.0181,113.5669 354.9471,114.3319 356.4511,115.8599 C357.9551,117.3879 358.7071,119.3189 358.7071,121.6529 C358.7071,124.0069 357.9481,125.9579 356.4291,127.5049 C354.9111,129.0529 352.9991,129.8269 350.6941,129.8269 C349.2681,129.8269 347.9091,129.5049 346.6141,128.8599 C345.3211,128.2159 344.3371,127.2699 343.6631,126.0259 C342.9891,124.7799 342.6521,123.2639 342.6521,121.4769" id="Fill-22" fill="#000000" sketch:type="MSShapeGroup" mask="url(#mask-2)"></path>
                <path d="M368.3164,113.9186 L372.6964,113.9186 L376.4174,124.9636 L380.0494,113.9186 L384.3124,113.9186 L378.8194,128.8896 L377.8374,131.5996 C377.4764,132.5076 377.1314,133.2006 376.8054,133.6796 C376.4774,134.1576 376.1024,134.5456 375.6764,134.8446 C375.2534,135.1416 374.7294,135.3736 374.1104,135.5396 C373.4894,135.7056 372.7894,135.7886 372.0074,135.7886 C371.2164,135.7886 370.4404,135.7056 369.6784,135.5396 L369.3124,132.3166 C369.9574,132.4436 370.5384,132.5076 371.0554,132.5076 C372.0124,132.5076 372.7204,132.2266 373.1794,131.6646 C373.6384,131.1036 373.9904,130.3886 374.2344,129.5196 L368.3164,113.9186 Z" id="Fill-23" fill="#000000" sketch:type="MSShapeGroup" mask="url(#mask-2)"></path>
                <path d="M390.2158,121.6969 C390.2158,123.2399 390.5818,124.4219 391.3148,125.2419 C392.0468,126.0619 392.9498,126.4719 394.0248,126.4719 C395.0988,126.4719 395.9988,126.0619 396.7278,125.2419 C397.4538,124.4219 397.8188,123.2299 397.8188,121.6679 C397.8188,120.1439 397.4538,118.9719 396.7278,118.1519 C395.9988,117.3319 395.0988,116.9219 394.0248,116.9219 C392.9498,116.9219 392.0468,117.3319 391.3148,118.1519 C390.5818,118.9719 390.2158,120.1539 390.2158,121.6969 M385.9968,121.4769 C385.9968,120.1099 386.3338,118.7869 387.0078,117.5079 C387.6818,116.2279 388.6358,115.2519 389.8718,114.5779 C391.1068,113.9039 392.4868,113.5669 394.0098,113.5669 C396.3628,113.5669 398.2918,114.3319 399.7958,115.8599 C401.2998,117.3879 402.0518,119.3189 402.0518,121.6529 C402.0518,124.0069 401.2918,125.9579 399.7748,127.5049 C398.2548,129.0529 396.3438,129.8269 394.0388,129.8269 C392.6128,129.8269 391.2528,129.5049 389.9598,128.8599 C388.6648,128.2159 387.6818,127.2699 387.0078,126.0259 C386.3338,124.7799 385.9968,123.2639 385.9968,121.4769" id="Fill-24" fill="#000000" sketch:type="MSShapeGroup" mask="url(#mask-2)"></path>
                <path d="M415.5137,129.4752 L415.5137,127.1462 C414.9477,127.9762 414.2017,128.6302 413.2807,129.1092 C412.3567,129.5872 411.3827,129.8272 410.3577,129.8272 C409.3127,129.8272 408.3747,129.5972 407.5447,129.1382 C406.7147,128.6792 406.1147,128.0352 405.7427,127.2042 C405.3717,126.3742 405.1867,125.2272 405.1867,123.7622 L405.1867,113.9182 L409.3027,113.9182 L409.3027,121.0672 C409.3027,123.2542 409.3777,124.5952 409.5307,125.0882 C409.6807,125.5812 409.9567,125.9722 410.3577,126.2602 C410.7577,126.5482 411.2657,126.6922 411.8807,126.6922 C412.5837,126.6922 413.2137,126.4992 413.7707,126.1142 C414.3267,125.7282 414.7077,125.2482 414.9127,124.6782 C415.1177,124.1062 415.2207,122.7072 415.2207,120.4812 L415.2207,113.9182 L419.3367,113.9182 L419.3367,129.4752 L415.5137,129.4752 Z" id="Fill-25" fill="#000000" sketch:type="MSShapeGroup" mask="url(#mask-2)"></path>
                <path d="M427.54,129.4752 L423.424,129.4752 L423.424,113.9182 L427.247,113.9182 L427.247,116.1302 C427.901,115.0852 428.489,114.3972 429.013,114.0652 C429.534,113.7332 430.128,113.5672 430.792,113.5672 C431.729,113.5672 432.633,113.8262 433.502,114.3432 L432.227,117.9322 C431.534,117.4832 430.89,117.2582 430.294,117.2582 C429.718,117.2582 429.229,117.4172 428.829,117.7352 C428.429,118.0522 428.114,118.6252 427.884,119.4552 C427.655,120.2862 427.54,122.0242 427.54,124.6702 L427.54,129.4752 Z" id="Fill-26" fill="#000000" sketch:type="MSShapeGroup" mask="url(#mask-2)"></path>
                <path d="M450.7432,113.9186 L450.7432,117.1996 L447.9302,117.1996 L447.9302,123.4696 C447.9302,124.7386 447.9582,125.4796 448.0112,125.6886 C448.0652,125.8986 448.1862,126.0716 448.3782,126.2086 C448.5672,126.3456 448.8002,126.4136 449.0732,126.4136 C449.4542,126.4136 450.0062,126.2816 450.7282,126.0186 L451.0802,129.2116 C450.1232,129.6216 449.0392,129.8266 447.8282,129.8266 C447.0862,129.8266 446.4172,129.7016 445.8212,129.4536 C445.2252,129.2036 444.7882,128.8816 444.5112,128.4866 C444.2312,128.0906 444.0392,127.5566 443.9312,126.8826 C443.8442,126.4036 443.8002,125.4376 443.8002,123.9816 L443.8002,117.1996 L441.9102,117.1996 L441.9102,113.9186 L443.8002,113.9186 L443.8002,110.8276 L447.9302,108.4256 L447.9302,113.9186 L450.7432,113.9186 Z" id="Fill-27" fill="#000000" sketch:type="MSShapeGroup" mask="url(#mask-2)"></path>
                <path d="M462.8428,120.3639 C462.8138,119.1729 462.5058,118.2669 461.9198,117.6469 C461.3338,117.0269 460.6208,116.7169 459.7808,116.7169 C458.8828,116.7169 458.1408,117.0439 457.5548,117.6979 C456.9688,118.3519 456.6808,119.2409 456.6908,120.3639 L462.8428,120.3639 Z M462.6088,124.5239 L466.7098,125.2129 C466.1828,126.7169 465.3508,127.8619 464.2118,128.6469 C463.0748,129.4339 461.6518,129.8269 459.9428,129.8269 C457.2378,129.8269 455.2358,128.9429 453.9368,127.1759 C452.9108,125.7599 452.3988,123.9719 452.3988,121.8139 C452.3988,119.2359 453.0718,117.2179 454.4198,115.7569 C455.7678,114.2979 457.4718,113.5669 459.5318,113.5669 C461.8468,113.5669 463.6728,114.3319 465.0108,115.8599 C466.3488,117.3879 466.9888,119.7289 466.9298,122.8839 L456.6168,122.8839 C456.6468,124.1039 456.9788,125.0539 457.6138,125.7329 C458.2478,126.4119 459.0388,126.7509 459.9868,126.7509 C460.6308,126.7509 461.1728,126.5749 461.6128,126.2229 C462.0518,125.8719 462.3838,125.3049 462.6088,124.5239 L462.6088,124.5239 Z" id="Fill-28" fill="#000000" sketch:type="MSShapeGroup" mask="url(#mask-2)"></path>
                <path d="M468.3066,129.4752 L473.9166,121.4622 L468.5406,113.9182 L473.5656,113.9182 L476.3196,118.1962 L479.2196,113.9182 L484.0536,113.9182 L478.7806,121.2872 L484.5366,129.4752 L479.4836,129.4752 L476.3196,124.6562 L473.1256,129.4752 L468.3066,129.4752 Z" id="Fill-29" fill="#000000" sketch:type="MSShapeGroup" mask="url(#mask-2)"></path>
                <path d="M494.1025,113.9186 L494.1025,117.1996 L491.2895,117.1996 L491.2895,123.4696 C491.2895,124.7386 491.3175,125.4796 491.3705,125.6886 C491.4245,125.8986 491.5455,126.0716 491.7375,126.2086 C491.9265,126.3456 492.1595,126.4136 492.4325,126.4136 C492.8135,126.4136 493.3655,126.2816 494.0875,126.0186 L494.4395,129.2116 C493.4825,129.6216 492.3985,129.8266 491.1875,129.8266 C490.4455,129.8266 489.7765,129.7016 489.1805,129.4536 C488.5845,129.2036 488.1475,128.8816 487.8705,128.4866 C487.5905,128.0906 487.3985,127.5566 487.2905,126.8826 C487.2035,126.4036 487.1595,125.4376 487.1595,123.9816 L487.1595,117.1996 L485.2695,117.1996 L485.2695,113.9186 L487.1595,113.9186 L487.1595,110.8276 L491.2895,108.4256 L491.2895,113.9186 L494.1025,113.9186 Z" id="Fill-30" fill="#000000" sketch:type="MSShapeGroup" mask="url(#mask-2)"></path>
                <path d="M504.9863,113.9186 L508.7803,113.9186 L508.7803,116.0426 C510.1373,114.3926 511.7543,113.5666 513.6293,113.5666 C514.6253,113.5666 515.4893,113.7726 516.2213,114.1826 C516.9543,114.5926 517.5543,115.2126 518.0233,116.0426 C518.7073,115.2126 519.4443,114.5926 520.2353,114.1826 C521.0263,113.7726 521.8713,113.5666 522.7693,113.5666 C523.9123,113.5666 524.8793,113.7996 525.6703,114.2626 C526.4613,114.7276 527.0513,115.4076 527.4423,116.3066 C527.7253,116.9706 527.8673,118.0446 527.8673,119.5286 L527.8673,129.4756 L523.7513,129.4756 L523.7513,120.5836 C523.7513,119.0406 523.6093,118.0446 523.3263,117.5956 C522.9453,117.0096 522.3593,116.7166 521.5683,116.7166 C520.9923,116.7166 520.4503,116.8926 519.9423,117.2436 C519.4343,117.5956 519.0683,118.1106 518.8433,118.7896 C518.6193,119.4686 518.5073,120.5396 518.5073,122.0046 L518.5073,129.4756 L514.3903,129.4756 L514.3903,120.9496 C514.3903,119.4366 514.3173,118.4596 514.1713,118.0206 C514.0243,117.5806 513.7983,117.2536 513.4893,117.0386 C513.1823,116.8236 512.7643,116.7166 512.2373,116.7166 C511.6023,116.7166 511.0313,116.8876 510.5233,117.2296 C510.0153,117.5706 509.6513,118.0646 509.4323,118.7086 C509.2123,119.3536 509.1023,120.4226 509.1023,121.9166 L509.1023,129.4756 L504.9863,129.4756 L504.9863,113.9186 Z" id="Fill-31" fill="#000000" sketch:type="MSShapeGroup" mask="url(#mask-2)"></path>
                <path d="M541.2119,120.3639 C541.1829,119.1729 540.8749,118.2669 540.2889,117.6469 C539.7029,117.0269 538.9899,116.7169 538.1499,116.7169 C537.2519,116.7169 536.5099,117.0439 535.9239,117.6979 C535.3379,118.3519 535.0499,119.2409 535.0599,120.3639 L541.2119,120.3639 Z M540.9779,124.5239 L545.0789,125.2129 C544.5519,126.7169 543.7199,127.8619 542.5809,128.6469 C541.4439,129.4339 540.0209,129.8269 538.3119,129.8269 C535.6069,129.8269 533.6049,128.9429 532.3059,127.1759 C531.2799,125.7599 530.7679,123.9719 530.7679,121.8139 C530.7679,119.2359 531.4409,117.2179 532.7889,115.7569 C534.1369,114.2979 535.8409,113.5669 537.9009,113.5669 C540.2159,113.5669 542.0419,114.3319 543.3799,115.8599 C544.7179,117.3879 545.3579,119.7289 545.2989,122.8839 L534.9859,122.8839 C535.0159,124.1039 535.3479,125.0539 535.9829,125.7329 C536.6169,126.4119 537.4079,126.7509 538.3559,126.7509 C538.9999,126.7509 539.5419,126.5749 539.9819,126.2229 C540.4209,125.8719 540.7529,125.3049 540.9779,124.5239 L540.9779,124.5239 Z" id="Fill-32" fill="#000000" sketch:type="MSShapeGroup" mask="url(#mask-2)"></path>
                <path d="M547.2031,125.0367 L551.3341,124.4067 C551.5101,125.2077 551.8661,125.8157 552.4031,126.2307 C552.9401,126.6457 553.6921,126.8527 554.6591,126.8527 C555.7241,126.8527 556.5241,126.6577 557.0611,126.2667 C557.4231,125.9937 557.6031,125.6277 557.6031,125.1687 C557.6031,124.8557 557.5061,124.5977 557.3101,124.3917 C557.1051,124.1967 556.6461,124.0157 555.9331,123.8497 C552.6131,123.1177 550.5091,122.4487 549.6201,121.8437 C548.3901,121.0037 547.7741,119.8367 547.7741,118.3427 C547.7741,116.9947 548.3071,115.8617 549.3711,114.9437 C550.4351,114.0257 552.0861,113.5667 554.3221,113.5667 C556.4511,113.5667 558.0331,113.9137 559.0681,114.6067 C560.1031,115.3007 560.8161,116.3257 561.2071,117.6827 L557.3251,118.4007 C557.1591,117.7957 556.8451,117.3317 556.3801,117.0097 C555.9171,116.6867 555.2551,116.5257 554.3951,116.5257 C553.3111,116.5257 552.5351,116.6777 552.0661,116.9797 C551.7541,117.1947 551.5981,117.4737 551.5981,117.8147 C551.5981,118.1077 551.7341,118.3567 552.0081,118.5617 C552.3791,118.8357 553.6611,119.2217 555.8521,119.7197 C558.0461,120.2177 559.5761,120.8277 560.4451,121.5507 C561.3051,122.2827 561.7341,123.3037 561.7341,124.6117 C561.7341,126.0377 561.1391,127.2637 559.9471,128.2887 C558.7561,129.3137 556.9931,129.8267 554.6591,129.8267 C552.5401,129.8267 550.8621,129.3967 549.6281,128.5377 C548.3911,127.6787 547.5841,126.5117 547.2031,125.0367" id="Fill-33" fill="#000000" sketch:type="MSShapeGroup" mask="url(#mask-2)"></path>
                <path d="M563.8877,125.0367 L568.0187,124.4067 C568.1947,125.2077 568.5507,125.8157 569.0877,126.2307 C569.6247,126.6457 570.3767,126.8527 571.3437,126.8527 C572.4087,126.8527 573.2087,126.6577 573.7457,126.2667 C574.1077,125.9937 574.2877,125.6277 574.2877,125.1687 C574.2877,124.8557 574.1907,124.5977 573.9947,124.3917 C573.7897,124.1967 573.3307,124.0157 572.6177,123.8497 C569.2977,123.1177 567.1937,122.4487 566.3047,121.8437 C565.0747,121.0037 564.4587,119.8367 564.4587,118.3427 C564.4587,116.9947 564.9917,115.8617 566.0557,114.9437 C567.1197,114.0257 568.7707,113.5667 571.0067,113.5667 C573.1357,113.5667 574.7177,113.9137 575.7527,114.6067 C576.7877,115.3007 577.5007,116.3257 577.8917,117.6827 L574.0097,118.4007 C573.8437,117.7957 573.5287,117.3317 573.0657,117.0097 C572.6007,116.6867 571.9397,116.5257 571.0797,116.5257 C569.9957,116.5257 569.2197,116.6777 568.7507,116.9797 C568.4387,117.1947 568.2827,117.4737 568.2827,117.8147 C568.2827,118.1077 568.4187,118.3567 568.6927,118.5617 C569.0637,118.8357 570.3447,119.2217 572.5377,119.7197 C574.7297,120.2177 576.2607,120.8277 577.1297,121.5507 C577.9897,122.2827 578.4187,123.3037 578.4187,124.6117 C578.4187,126.0377 577.8237,127.2637 576.6317,128.2887 C575.4407,129.3137 573.6777,129.8267 571.3437,129.8267 C569.2247,129.8267 567.5477,129.3967 566.3117,128.5377 C565.0767,127.6787 564.2687,126.5117 563.8877,125.0367" id="Fill-34" fill="#000000" sketch:type="MSShapeGroup" mask="url(#mask-2)"></path>
                <path d="M590.6064,122.0045 C590.0794,122.1805 589.2444,122.3905 588.1014,122.6345 C586.9594,122.8785 586.2114,123.1175 585.8604,123.3525 C585.3234,123.7335 585.0544,124.2165 585.0544,124.8025 C585.0544,125.3785 585.2694,125.8765 585.6994,126.2965 C586.1284,126.7165 586.6754,126.9265 587.3394,126.9265 C588.0824,126.9265 588.7904,126.6825 589.4634,126.1935 C589.9614,125.8225 590.2894,125.3685 590.4454,124.8315 C590.5524,124.4805 590.6064,123.8115 590.6064,122.8245 L590.6064,122.0045 Z M585.0984,118.6645 L581.3634,117.9905 C581.7834,116.4865 582.5054,115.3735 583.5314,114.6505 C584.5564,113.9285 586.0804,113.5665 588.1014,113.5665 C589.9374,113.5665 591.3044,113.7845 592.2034,114.2195 C593.1014,114.6535 593.7334,115.2055 594.1004,115.8735 C594.4654,116.5435 594.6494,117.7715 594.6494,119.5585 L594.6054,124.3625 C594.6054,125.7305 594.6704,126.7385 594.8034,127.3875 C594.9344,128.0375 595.1814,128.7335 595.5434,129.4755 L591.4704,129.4755 C591.3634,129.2015 591.2314,128.7965 591.0754,128.2595 C591.0064,128.0155 590.9584,127.8545 590.9284,127.7755 C590.2254,128.4595 589.4734,128.9725 588.6724,129.3145 C587.8724,129.6555 587.0174,129.8265 586.1094,129.8265 C584.5074,129.8265 583.2454,129.3925 582.3234,128.5235 C581.3994,127.6535 580.9384,126.5555 580.9384,125.2275 C580.9384,124.3485 581.1484,123.5655 581.5684,122.8755 C581.9884,122.1885 582.5774,121.6605 583.3334,121.2935 C584.0904,120.9285 585.1814,120.6085 586.6074,120.3345 C588.5314,119.9735 589.8644,119.6365 590.6064,119.3235 L590.6064,118.9135 C590.6064,118.1225 590.4114,117.5595 590.0204,117.2215 C589.6294,116.8855 588.8924,116.7165 587.8084,116.7165 C587.0764,116.7165 586.5044,116.8605 586.0944,117.1495 C585.6844,117.4375 585.3524,117.9425 585.0984,118.6645 L585.0984,118.6645 Z" id="Fill-35" fill="#000000" sketch:type="MSShapeGroup" mask="url(#mask-2)"></path>
                <path d="M602.0029,121.3746 C602.0029,123.0246 602.3229,124.2336 602.9619,125.0006 C603.6029,125.7676 604.3909,126.1496 605.3279,126.1496 C606.3339,126.1496 607.1839,125.7576 607.8769,124.9716 C608.5699,124.1856 608.9169,123.0206 608.9169,121.4776 C608.9169,119.8656 608.5849,118.6696 607.9209,117.8886 C607.2569,117.1066 606.4169,116.7166 605.4009,116.7166 C604.4149,116.7166 603.6029,117.1006 602.9619,117.8656 C602.3229,118.6336 602.0029,119.8026 602.0029,121.3746 M598.3259,130.5006 L603.0279,131.0716 C603.1069,131.6186 603.2869,131.9946 603.5699,132.1996 C603.9609,132.4926 604.5759,132.6396 605.4159,132.6396 C606.4899,132.6396 607.2959,132.4786 607.8329,132.1556 C608.1939,131.9406 608.4679,131.5946 608.6529,131.1156 C608.7799,130.7736 608.8439,130.1446 608.8439,129.2266 L608.8439,126.9556 C607.6129,128.6356 606.0609,129.4756 604.1859,129.4756 C602.0959,129.4756 600.4409,128.5916 599.2199,126.8236 C598.2629,125.4276 597.7839,123.6886 597.7839,121.6086 C597.7839,119.0016 598.4109,117.0096 599.6669,115.6326 C600.9209,114.2556 602.4819,113.5666 604.3469,113.5666 C606.2709,113.5666 607.8569,114.4116 609.1069,116.1016 L609.1069,113.9186 L612.9599,113.9186 L612.9599,127.8786 C612.9599,129.7146 612.8089,131.0866 612.5059,131.9946 C612.2029,132.9026 611.7779,133.6156 611.2319,134.1336 C610.6849,134.6506 609.9539,135.0566 609.0419,135.3496 C608.1279,135.6426 606.9739,135.7886 605.5769,135.7886 C602.9399,135.7886 601.0699,135.3366 599.9669,134.4346 C598.8629,133.5296 598.3119,132.3856 598.3119,130.9986 C598.3119,130.8616 598.3159,130.6956 598.3259,130.5006" id="Fill-36" fill="#000000" sketch:type="MSShapeGroup" mask="url(#mask-2)"></path>
                <path d="M626.2754,120.3639 C626.2464,119.1729 625.9384,118.2669 625.3524,117.6469 C624.7664,117.0269 624.0534,116.7169 623.2134,116.7169 C622.3154,116.7169 621.5734,117.0439 620.9874,117.6979 C620.4014,118.3519 620.1134,119.2409 620.1234,120.3639 L626.2754,120.3639 Z M626.0414,124.5239 L630.1424,125.2129 C629.6154,126.7169 628.7824,127.8619 627.6454,128.6469 C626.5064,129.4339 625.0844,129.8269 623.3754,129.8269 C620.6704,129.8269 618.6684,128.9429 617.3694,127.1759 C616.3434,125.7599 615.8314,123.9719 615.8314,121.8139 C615.8314,119.2359 616.5044,117.2179 617.8524,115.7569 C619.2004,114.2979 620.9044,113.5669 622.9644,113.5669 C625.2794,113.5669 627.1054,114.3319 628.4434,115.8599 C629.7814,117.3879 630.4214,119.7289 630.3624,122.8839 L620.0494,122.8839 C620.0794,124.1039 620.4114,125.0539 621.0464,125.7329 C621.6804,126.4119 622.4714,126.7509 623.4194,126.7509 C624.0634,126.7509 624.6054,126.5749 625.0454,126.2229 C625.4844,125.8719 625.8164,125.3049 626.0414,124.5239 L626.0414,124.5239 Z" id="Fill-37" fill="#000000" sketch:type="MSShapeGroup" mask="url(#mask-2)"></path>
                <path d="M632.2666,125.0367 L636.3976,124.4067 C636.5736,125.2077 636.9296,125.8157 637.4666,126.2307 C638.0036,126.6457 638.7556,126.8527 639.7226,126.8527 C640.7876,126.8527 641.5876,126.6577 642.1246,126.2667 C642.4866,125.9937 642.6666,125.6277 642.6666,125.1687 C642.6666,124.8557 642.5696,124.5977 642.3736,124.3917 C642.1686,124.1967 641.7096,124.0157 640.9966,123.8497 C637.6766,123.1177 635.5726,122.4487 634.6836,121.8437 C633.4536,121.0037 632.8376,119.8367 632.8376,118.3427 C632.8376,116.9947 633.3706,115.8617 634.4346,114.9437 C635.4986,114.0257 637.1496,113.5667 639.3856,113.5667 C641.5146,113.5667 643.0966,113.9137 644.1316,114.6067 C645.1666,115.3007 645.8796,116.3257 646.2706,117.6827 L642.3886,118.4007 C642.2226,117.7957 641.9076,117.3317 641.4446,117.0097 C640.9796,116.6867 640.3186,116.5257 639.4586,116.5257 C638.3746,116.5257 637.5986,116.6777 637.1296,116.9797 C636.8176,117.1947 636.6616,117.4737 636.6616,117.8147 C636.6616,118.1077 636.7976,118.3567 637.0716,118.5617 C637.4426,118.8357 638.7236,119.2217 640.9166,119.7197 C643.1086,120.2177 644.6396,120.8277 645.5086,121.5507 C646.3686,122.2827 646.7976,123.3037 646.7976,124.6117 C646.7976,126.0377 646.2026,127.2637 645.0106,128.2887 C643.8196,129.3137 642.0566,129.8267 639.7226,129.8267 C637.6036,129.8267 635.9266,129.3967 634.6906,128.5377 C633.4556,127.6787 632.6476,126.5117 632.2666,125.0367" id="Fill-38" fill="#000000" sketch:type="MSShapeGroup" mask="url(#mask-2)"></path>
                <path d="M650.2988,125.359 L654.4148,125.359 L654.4148,128.303 C654.4148,129.495 654.3128,130.434 654.1078,131.124 C653.9028,131.811 653.5148,132.429 652.9428,132.976 C652.3718,133.523 651.6468,133.953 650.7678,134.265 L649.9618,132.566 C650.7918,132.293 651.3828,131.917 651.7348,131.438 C652.0858,130.96 652.2718,130.305 652.2908,129.475 L650.2988,129.475 L650.2988,125.359 Z" id="Fill-39" fill="#000000" sketch:type="MSShapeGroup" mask="url(#mask-2)"></path>
                <path d="M333.512,144.001 L337.848,144.001 L337.848,165.476 L333.512,165.476 L333.512,144.001 Z" id="Fill-40" fill="#000000" sketch:type="MSShapeGroup" mask="url(#mask-2)"></path>
                <path d="M341.8467,144.0592 L345.9627,144.0592 L345.9627,147.0032 C345.9627,148.1952 345.8607,149.1352 345.6557,149.8232 C345.4507,150.5122 345.0617,151.1292 344.4917,151.6762 C343.9187,152.2232 343.1947,152.6532 342.3157,152.9652 L341.5097,151.2662 C342.3397,150.9932 342.9307,150.6172 343.2827,150.1382 C343.6337,149.6602 343.8197,149.0052 343.8387,148.1752 L341.8467,148.1752 L341.8467,144.0592 Z" id="Fill-41" fill="#000000" sketch:type="MSShapeGroup" mask="url(#mask-2)"></path>
                <path d="M350.284,144.001 L354.4,144.001 L354.4,165.476 L350.284,165.476 L350.284,144.001 Z" id="Fill-42" fill="#000000" sketch:type="MSShapeGroup" mask="url(#mask-2)"></path>
                <path d="M358.619,144.001 L362.735,144.001 L362.735,165.476 L358.619,165.476 L358.619,144.001 Z" id="Fill-43" fill="#000000" sketch:type="MSShapeGroup" mask="url(#mask-2)"></path>
                <path d="M379.2002,157.36 C379.2002,158.971 379.4542,160.163 379.9622,160.934 C380.6752,162.028 381.6222,162.575 382.8042,162.575 C383.7122,162.575 384.4852,162.186 385.1262,161.411 C385.7642,160.633 386.0852,159.411 386.0852,157.741 C386.0852,155.964 385.7622,154.682 385.1182,153.895 C384.4732,153.11 383.6482,152.716 382.6422,152.716 C381.6562,152.716 380.8362,153.1 380.1812,153.866 C379.5272,154.633 379.2002,155.798 379.2002,157.36 L379.2002,157.36 Z M375.1132,165.475 L375.1132,144.001 L379.2292,144.001 L379.2292,151.735 C380.4992,150.29 382.0032,149.567 383.7412,149.567 C385.6362,149.567 387.2032,150.254 388.4432,151.626 C389.6832,152.998 390.3042,154.967 390.3042,157.536 C390.3042,160.192 389.6712,162.238 388.4072,163.673 C387.1412,165.109 385.6062,165.827 383.8002,165.827 C382.9112,165.827 382.0342,165.604 381.1712,165.161 C380.3052,164.716 379.5612,164.059 378.9362,163.19 L378.9362,165.475 L375.1132,165.475 Z" id="Fill-44" fill="#000000" sketch:type="MSShapeGroup" mask="url(#mask-2)"></path>
                <path d="M402.8574,156.3639 C402.8284,155.1729 402.5204,154.2669 401.9344,153.6469 C401.3484,153.0269 400.6354,152.7169 399.7954,152.7169 C398.8974,152.7169 398.1554,153.0439 397.5694,153.6979 C396.9834,154.3519 396.6954,155.2409 396.7054,156.3639 L402.8574,156.3639 Z M402.6234,160.5239 L406.7244,161.2129 C406.1974,162.7169 405.3644,163.8619 404.2274,164.6469 C403.0884,165.4339 401.6664,165.8269 399.9574,165.8269 C397.2524,165.8269 395.2504,164.9429 393.9514,163.1759 C392.9254,161.7599 392.4134,159.9719 392.4134,157.8139 C392.4134,155.2359 393.0864,153.2179 394.4344,151.7569 C395.7824,150.2979 397.4864,149.5669 399.5464,149.5669 C401.8614,149.5669 403.6874,150.3319 405.0254,151.8599 C406.3634,153.3879 407.0034,155.7289 406.9444,158.8839 L396.6314,158.8839 C396.6614,160.1039 396.9934,161.0539 397.6284,161.7329 C398.2624,162.4119 399.0534,162.7509 400.0014,162.7509 C400.6454,162.7509 401.1874,162.5749 401.6274,162.2229 C402.0664,161.8719 402.3984,161.3049 402.6234,160.5239 L402.6234,160.5239 Z" id="Fill-45" fill="#000000" sketch:type="MSShapeGroup" mask="url(#mask-2)"></path>
                <path d="M427.2178,158.0045 C426.6908,158.1805 425.8558,158.3905 424.7128,158.6345 C423.5708,158.8785 422.8228,159.1175 422.4718,159.3525 C421.9348,159.7335 421.6658,160.2165 421.6658,160.8025 C421.6658,161.3785 421.8808,161.8765 422.3108,162.2965 C422.7398,162.7165 423.2868,162.9265 423.9508,162.9265 C424.6938,162.9265 425.4018,162.6825 426.0748,162.1935 C426.5728,161.8225 426.9008,161.3685 427.0568,160.8315 C427.1638,160.4805 427.2178,159.8115 427.2178,158.8245 L427.2178,158.0045 Z M421.7098,154.6645 L417.9748,153.9905 C418.3948,152.4865 419.1168,151.3735 420.1428,150.6505 C421.1678,149.9285 422.6918,149.5665 424.7128,149.5665 C426.5488,149.5665 427.9158,149.7845 428.8148,150.2195 C429.7128,150.6535 430.3448,151.2055 430.7118,151.8735 C431.0768,152.5435 431.2608,153.7715 431.2608,155.5585 L431.2168,160.3625 C431.2168,161.7305 431.2818,162.7385 431.4148,163.3875 C431.5458,164.0375 431.7928,164.7335 432.1548,165.4755 L428.0818,165.4755 C427.9748,165.2015 427.8428,164.7965 427.6868,164.2595 C427.6178,164.0155 427.5698,163.8545 427.5398,163.7755 C426.8368,164.4595 426.0848,164.9725 425.2838,165.3145 C424.4838,165.6555 423.6288,165.8265 422.7208,165.8265 C421.1188,165.8265 419.8568,165.3925 418.9348,164.5235 C418.0108,163.6535 417.5498,162.5555 417.5498,161.2275 C417.5498,160.3485 417.7598,159.5655 418.1798,158.8755 C418.5998,158.1885 419.1888,157.6605 419.9448,157.2935 C420.7018,156.9285 421.7928,156.6085 423.2188,156.3345 C425.1428,155.9735 426.4758,155.6365 427.2178,155.3235 L427.2178,154.9135 C427.2178,154.1225 427.0228,153.5595 426.6318,153.2215 C426.2408,152.8855 425.5038,152.7165 424.4198,152.7165 C423.6878,152.7165 423.1158,152.8605 422.7058,153.1495 C422.2958,153.4375 421.9638,153.9425 421.7098,154.6645 L421.7098,154.6645 Z" id="Fill-46" fill="#000000" sketch:type="MSShapeGroup" mask="url(#mask-2)"></path>
                <path d="M439.2295,157.36 C439.2295,158.971 439.4835,160.163 439.9915,160.934 C440.7045,162.028 441.6515,162.575 442.8335,162.575 C443.7415,162.575 444.5145,162.186 445.1555,161.411 C445.7935,160.633 446.1145,159.411 446.1145,157.741 C446.1145,155.964 445.7915,154.682 445.1475,153.895 C444.5025,153.11 443.6775,152.716 442.6715,152.716 C441.6855,152.716 440.8655,153.1 440.2105,153.866 C439.5565,154.633 439.2295,155.798 439.2295,157.36 L439.2295,157.36 Z M435.1425,165.475 L435.1425,144.001 L439.2585,144.001 L439.2585,151.735 C440.5285,150.29 442.0325,149.567 443.7705,149.567 C445.6655,149.567 447.2325,150.254 448.4725,151.626 C449.7125,152.998 450.3335,154.967 450.3335,157.536 C450.3335,160.192 449.7005,162.238 448.4365,163.673 C447.1705,165.109 445.6355,165.827 443.8295,165.827 C442.9405,165.827 442.0635,165.604 441.2005,165.161 C440.3345,164.716 439.5905,164.059 438.9655,163.19 L438.9655,165.475 L435.1425,165.475 Z" id="Fill-47" fill="#000000" sketch:type="MSShapeGroup" mask="url(#mask-2)"></path>
                <path d="M453.644,144.001 L457.76,144.001 L457.76,165.476 L453.644,165.476 L453.644,144.001 Z" id="Fill-48" fill="#000000" sketch:type="MSShapeGroup" mask="url(#mask-2)"></path>
                <path d="M471.2217,156.3639 C471.1927,155.1729 470.8847,154.2669 470.2987,153.6469 C469.7127,153.0269 468.9997,152.7169 468.1597,152.7169 C467.2617,152.7169 466.5197,153.0439 465.9337,153.6979 C465.3477,154.3519 465.0597,155.2409 465.0697,156.3639 L471.2217,156.3639 Z M470.9877,160.5239 L475.0887,161.2129 C474.5617,162.7169 473.7297,163.8619 472.5907,164.6469 C471.4537,165.4339 470.0307,165.8269 468.3217,165.8269 C465.6167,165.8269 463.6147,164.9429 462.3157,163.1759 C461.2897,161.7599 460.7777,159.9719 460.7777,157.8139 C460.7777,155.2359 461.4507,153.2179 462.7987,151.7569 C464.1467,150.2979 465.8507,149.5669 467.9107,149.5669 C470.2257,149.5669 472.0517,150.3319 473.3897,151.8599 C474.7277,153.3879 475.3677,155.7289 475.3087,158.8839 L464.9957,158.8839 C465.0257,160.1039 465.3577,161.0539 465.9927,161.7329 C466.6267,162.4119 467.4177,162.7509 468.3657,162.7509 C469.0097,162.7509 469.5517,162.5749 469.9917,162.2229 C470.4307,161.8719 470.7627,161.3049 470.9877,160.5239 L470.9877,160.5239 Z" id="Fill-49" fill="#000000" sketch:type="MSShapeGroup" mask="url(#mask-2)"></path>
                <path d="M494.1318,149.9186 L494.1318,153.1996 L491.3188,153.1996 L491.3188,159.4696 C491.3188,160.7386 491.3468,161.4796 491.3998,161.6886 C491.4538,161.8986 491.5748,162.0716 491.7668,162.2086 C491.9558,162.3456 492.1888,162.4136 492.4618,162.4136 C492.8428,162.4136 493.3948,162.2816 494.1168,162.0186 L494.4688,165.2116 C493.5118,165.6216 492.4278,165.8266 491.2168,165.8266 C490.4748,165.8266 489.8058,165.7016 489.2098,165.4536 C488.6138,165.2036 488.1768,164.8816 487.8998,164.4866 C487.6198,164.0906 487.4278,163.5566 487.3198,162.8826 C487.2328,162.4036 487.1888,161.4376 487.1888,159.9816 L487.1888,153.1996 L485.2988,153.1996 L485.2988,149.9186 L487.1888,149.9186 L487.1888,146.8276 L491.3188,144.4256 L491.3188,149.9186 L494.1318,149.9186 Z" id="Fill-50" fill="#000000" sketch:type="MSShapeGroup" mask="url(#mask-2)"></path>
                <path d="M500.2549,157.6969 C500.2549,159.2399 500.6209,160.4219 501.3539,161.2419 C502.0859,162.0619 502.9889,162.4719 504.0639,162.4719 C505.1379,162.4719 506.0379,162.0619 506.7669,161.2419 C507.4929,160.4219 507.8579,159.2299 507.8579,157.6679 C507.8579,156.1439 507.4929,154.9719 506.7669,154.1519 C506.0379,153.3319 505.1379,152.9219 504.0639,152.9219 C502.9889,152.9219 502.0859,153.3319 501.3539,154.1519 C500.6209,154.9719 500.2549,156.1539 500.2549,157.6969 M496.0359,157.4769 C496.0359,156.1099 496.3729,154.7869 497.0469,153.5079 C497.7209,152.2279 498.6749,151.2519 499.9109,150.5779 C501.1459,149.9039 502.5259,149.5669 504.0489,149.5669 C506.4019,149.5669 508.3309,150.3319 509.8349,151.8599 C511.3389,153.3879 512.0909,155.3189 512.0909,157.6529 C512.0909,160.0069 511.3309,161.9579 509.8139,163.5049 C508.2939,165.0529 506.3829,165.8269 504.0779,165.8269 C502.6519,165.8269 501.2919,165.5049 499.9989,164.8599 C498.7039,164.2159 497.7209,163.2699 497.0469,162.0259 C496.3729,160.7799 496.0359,159.2639 496.0359,157.4769" id="Fill-51" fill="#000000" sketch:type="MSShapeGroup" mask="url(#mask-2)"></path>
                <path d="M526.9297,157.36 C526.9297,159.02 527.1587,160.221 527.6177,160.964 C528.2827,162.038 529.2097,162.575 530.4017,162.575 C531.3487,162.575 532.1547,162.172 532.8187,161.366 C533.4827,160.561 533.8147,159.357 533.8147,157.756 C533.8147,155.968 533.4917,154.682 532.8477,153.895 C532.2027,153.11 531.3777,152.716 530.3717,152.716 C529.3957,152.716 528.5767,153.104 527.9187,153.881 C527.2587,154.657 526.9297,155.817 526.9297,157.36 L526.9297,157.36 Z M537.9157,165.475 L534.0927,165.475 L534.0927,163.19 C533.4577,164.079 532.7077,164.741 531.8447,165.174 C530.9797,165.609 530.1087,165.827 529.2297,165.827 C527.4427,165.827 525.9107,165.107 524.6377,163.667 C523.3627,162.226 522.7257,160.216 522.7257,157.638 C522.7257,155.002 523.3457,152.998 524.5857,151.626 C525.8257,150.254 527.3937,149.567 529.2877,149.567 C531.0267,149.567 532.5307,150.29 533.7997,151.735 L533.7997,144.001 L537.9157,144.001 L537.9157,165.475 Z" id="Fill-52" fill="#000000" sketch:type="MSShapeGroup" mask="url(#mask-2)"></path>
                <path d="M545.2402,157.6969 C545.2402,159.2399 545.6062,160.4219 546.3392,161.2419 C547.0712,162.0619 547.9742,162.4719 549.0492,162.4719 C550.1232,162.4719 551.0242,162.0619 551.7512,161.2419 C552.4792,160.4219 552.8432,159.2299 552.8432,157.6679 C552.8432,156.1439 552.4792,154.9719 551.7512,154.1519 C551.0242,153.3319 550.1232,152.9219 549.0492,152.9219 C547.9742,152.9219 547.0712,153.3319 546.3392,154.1519 C545.6062,154.9719 545.2402,156.1539 545.2402,157.6969 M541.0212,157.4769 C541.0212,156.1099 541.3582,154.7869 542.0322,153.5079 C542.7062,152.2279 543.6612,151.2519 544.8952,150.5779 C546.1322,149.9039 547.5112,149.5669 549.0342,149.5669 C551.3872,149.5669 553.3162,150.3319 554.8202,151.8599 C556.3242,153.3879 557.0762,155.3189 557.0762,157.6529 C557.0762,160.0069 556.3172,161.9579 554.7982,163.5049 C553.2802,165.0529 551.3682,165.8269 549.0632,165.8269 C547.6372,165.8269 546.2782,165.5049 544.9832,164.8599 C543.6902,164.2159 542.7062,163.2699 542.0322,162.0259 C541.3582,160.7799 541.0212,159.2639 541.0212,157.4769" id="Fill-53" fill="#000000" sketch:type="MSShapeGroup" mask="url(#mask-2)"></path>
                <path d="M567.1836,161.0367 L571.3146,160.4067 C571.4906,161.2077 571.8466,161.8157 572.3836,162.2307 C572.9206,162.6457 573.6726,162.8527 574.6396,162.8527 C575.7046,162.8527 576.5046,162.6577 577.0416,162.2667 C577.4036,161.9937 577.5836,161.6277 577.5836,161.1687 C577.5836,160.8557 577.4866,160.5977 577.2906,160.3917 C577.0856,160.1967 576.6266,160.0157 575.9136,159.8497 C572.5936,159.1177 570.4896,158.4487 569.6006,157.8437 C568.3706,157.0037 567.7546,155.8367 567.7546,154.3427 C567.7546,152.9947 568.2876,151.8617 569.3516,150.9437 C570.4156,150.0257 572.0666,149.5667 574.3026,149.5667 C576.4316,149.5667 578.0136,149.9137 579.0486,150.6067 C580.0836,151.3007 580.7966,152.3257 581.1876,153.6827 L577.3056,154.4007 C577.1396,153.7957 576.8256,153.3317 576.3606,153.0097 C575.8976,152.6867 575.2356,152.5257 574.3756,152.5257 C573.2916,152.5257 572.5156,152.6777 572.0466,152.9797 C571.7346,153.1947 571.5786,153.4737 571.5786,153.8147 C571.5786,154.1077 571.7146,154.3567 571.9886,154.5617 C572.3596,154.8357 573.6416,155.2217 575.8326,155.7197 C578.0266,156.2177 579.5566,156.8277 580.4256,157.5507 C581.2856,158.2827 581.7146,159.3037 581.7146,160.6117 C581.7146,162.0377 581.1196,163.2637 579.9276,164.2887 C578.7366,165.3137 576.9736,165.8267 574.6396,165.8267 C572.5206,165.8267 570.8426,165.3967 569.6086,164.5377 C568.3716,163.6787 567.5646,162.5117 567.1836,161.0367" id="Fill-54" fill="#000000" sketch:type="MSShapeGroup" mask="url(#mask-2)"></path>
                <path d="M588.585,157.6969 C588.585,159.2399 588.951,160.4219 589.684,161.2419 C590.416,162.0619 591.319,162.4719 592.394,162.4719 C593.468,162.4719 594.368,162.0619 595.097,161.2419 C595.823,160.4219 596.188,159.2299 596.188,157.6679 C596.188,156.1439 595.823,154.9719 595.097,154.1519 C594.368,153.3319 593.468,152.9219 592.394,152.9219 C591.319,152.9219 590.416,153.3319 589.684,154.1519 C588.951,154.9719 588.585,156.1539 588.585,157.6969 M584.366,157.4769 C584.366,156.1099 584.703,154.7869 585.377,153.5079 C586.051,152.2279 587.005,151.2519 588.241,150.5779 C589.476,149.9039 590.856,149.5669 592.379,149.5669 C594.732,149.5669 596.661,150.3319 598.165,151.8599 C599.669,153.3879 600.421,155.3189 600.421,157.6529 C600.421,160.0069 599.661,161.9579 598.144,163.5049 C596.624,165.0529 594.713,165.8269 592.408,165.8269 C590.982,165.8269 589.622,165.5049 588.329,164.8599 C587.034,164.2159 586.051,163.2699 585.377,162.0259 C584.703,160.7799 584.366,159.2639 584.366,157.4769" id="Fill-55" fill="#000000" sketch:type="MSShapeGroup" mask="url(#mask-2)"></path>
                <path d="M333.3066,185.9186 L337.1006,185.9186 L337.1006,188.0426 C338.4576,186.3926 340.0746,185.5666 341.9496,185.5666 C342.9456,185.5666 343.8096,185.7726 344.5416,186.1826 C345.2746,186.5926 345.8746,187.2126 346.3436,188.0426 C347.0276,187.2126 347.7646,186.5926 348.5556,186.1826 C349.3466,185.7726 350.1916,185.5666 351.0896,185.5666 C352.2326,185.5666 353.1996,185.7996 353.9906,186.2626 C354.7816,186.7276 355.3716,187.4076 355.7626,188.3066 C356.0456,188.9706 356.1876,190.0446 356.1876,191.5286 L356.1876,201.4756 L352.0716,201.4756 L352.0716,192.5836 C352.0716,191.0406 351.9296,190.0446 351.6466,189.5956 C351.2656,189.0096 350.6796,188.7166 349.8886,188.7166 C349.3126,188.7166 348.7706,188.8926 348.2626,189.2436 C347.7546,189.5956 347.3886,190.1106 347.1636,190.7896 C346.9396,191.4686 346.8276,192.5396 346.8276,194.0046 L346.8276,201.4756 L342.7106,201.4756 L342.7106,192.9496 C342.7106,191.4366 342.6376,190.4596 342.4916,190.0206 C342.3446,189.5806 342.1186,189.2536 341.8096,189.0386 C341.5026,188.8236 341.0846,188.7166 340.5576,188.7166 C339.9226,188.7166 339.3516,188.8876 338.8436,189.2296 C338.3356,189.5706 337.9716,190.0646 337.7526,190.7086 C337.5326,191.3536 337.4226,192.4226 337.4226,193.9166 L337.4226,201.4756 L333.3066,201.4756 L333.3066,185.9186 Z" id="Fill-56" fill="#000000" sketch:type="MSShapeGroup" mask="url(#mask-2)"></path>
                <path d="M370.5283,201.4752 L370.5283,199.1462 C369.9623,199.9762 369.2173,200.6302 368.2943,201.1092 C367.3723,201.5872 366.3973,201.8272 365.3723,201.8272 C364.3273,201.8272 363.3893,201.5972 362.5593,201.1382 C361.7293,200.6792 361.1293,200.0352 360.7573,199.2042 C360.3863,198.3742 360.2013,197.2272 360.2013,195.7622 L360.2013,185.9182 L364.3173,185.9182 L364.3173,193.0672 C364.3173,195.2542 364.3933,196.5952 364.5443,197.0882 C364.6963,197.5812 364.9713,197.9722 365.3723,198.2602 C365.7723,198.5482 366.2803,198.6922 366.8953,198.6922 C367.5983,198.6922 368.2283,198.4992 368.7853,198.1142 C369.3413,197.7282 369.7223,197.2482 369.9273,196.6782 C370.1323,196.1062 370.2353,194.7072 370.2353,192.4812 L370.2353,185.9182 L374.3513,185.9182 L374.3513,201.4752 L370.5283,201.4752 Z" id="Fill-57" fill="#000000" sketch:type="MSShapeGroup" mask="url(#mask-2)"></path>
                <path d="M392.1787,190.5182 L388.1207,191.2502 C387.9847,190.4402 387.6747,189.8302 387.1907,189.4192 C386.7077,189.0092 386.0797,188.8042 385.3087,188.8042 C384.2827,188.8042 383.4657,189.1592 382.8547,189.8662 C382.2447,190.5752 381.9397,191.7582 381.9397,193.4182 C381.9397,195.2642 382.2487,196.5682 382.8697,197.3302 C383.4897,198.0912 384.3227,198.4722 385.3667,198.4722 C386.1487,198.4722 386.7877,198.2502 387.2857,197.8052 C387.7837,197.3622 388.1357,196.5972 388.3407,195.5132 L392.3837,196.2022 C391.9637,198.0572 391.1577,199.4582 389.9667,200.4062 C388.7757,201.3532 387.1787,201.8272 385.1767,201.8272 C382.9017,201.8272 381.0867,201.1092 379.7357,199.6732 C378.3817,198.2382 377.7057,196.2502 377.7057,193.7112 C377.7057,191.1432 378.3847,189.1442 379.7417,187.7132 C381.0997,186.2832 382.9357,185.5672 385.2497,185.5672 C387.1447,185.5672 388.6517,185.9752 389.7687,186.7892 C390.8877,187.6062 391.6907,188.8482 392.1787,190.5182" id="Fill-58" fill="#000000" sketch:type="MSShapeGroup" mask="url(#mask-2)"></path>
                <path d="M399.4004,180.0006 L399.4004,187.8966 C400.7284,186.3436 402.3154,185.5666 404.1614,185.5666 C405.1084,185.5666 405.9624,185.7426 406.7244,186.0946 C407.4864,186.4456 408.0594,186.8956 408.4464,187.4416 C408.8314,187.9886 409.0944,188.5946 409.2374,189.2586 C409.3784,189.9226 409.4494,190.9526 409.4494,192.3496 L409.4494,201.4756 L405.3334,201.4756 L405.3334,193.2576 C405.3334,191.6266 405.2544,190.5916 405.0984,190.1516 C404.9424,189.7126 404.6674,189.3636 404.2704,189.1046 C403.8764,188.8466 403.3794,188.7166 402.7844,188.7166 C402.1004,188.7166 401.4904,188.8826 400.9534,189.2146 C400.4164,189.5466 400.0224,190.0476 399.7744,190.7156 C399.5244,191.3856 399.4004,192.3736 399.4004,193.6826 L399.4004,201.4756 L395.2844,201.4756 L395.2844,180.0006 L399.4004,180.0006 Z" id="Fill-59" fill="#000000" sketch:type="MSShapeGroup" mask="url(#mask-2)"></path>
                <path d="M421.6514,185.9186 L425.4454,185.9186 L425.4454,188.0426 C426.8024,186.3926 428.4194,185.5666 430.2944,185.5666 C431.2904,185.5666 432.1544,185.7726 432.8864,186.1826 C433.6194,186.5926 434.2194,187.2126 434.6884,188.0426 C435.3724,187.2126 436.1094,186.5926 436.9004,186.1826 C437.6914,185.7726 438.5364,185.5666 439.4344,185.5666 C440.5774,185.5666 441.5444,185.7996 442.3354,186.2626 C443.1264,186.7276 443.7164,187.4076 444.1074,188.3066 C444.3904,188.9706 444.5324,190.0446 444.5324,191.5286 L444.5324,201.4756 L440.4164,201.4756 L440.4164,192.5836 C440.4164,191.0406 440.2744,190.0446 439.9914,189.5956 C439.6104,189.0096 439.0244,188.7166 438.2334,188.7166 C437.6574,188.7166 437.1154,188.8926 436.6074,189.2436 C436.0994,189.5956 435.7334,190.1106 435.5084,190.7896 C435.2844,191.4686 435.1724,192.5396 435.1724,194.0046 L435.1724,201.4756 L431.0554,201.4756 L431.0554,192.9496 C431.0554,191.4366 430.9824,190.4596 430.8364,190.0206 C430.6894,189.5806 430.4624,189.2536 430.1554,189.0386 C429.8464,188.8236 429.4294,188.7166 428.9024,188.7166 C428.2674,188.7166 427.6964,188.8876 427.1884,189.2296 C426.6804,189.5706 426.3174,190.0646 426.0964,190.7086 C425.8784,191.3536 425.7674,192.4226 425.7674,193.9166 L425.7674,201.4756 L421.6514,201.4756 L421.6514,185.9186 Z" id="Fill-60" fill="#000000" sketch:type="MSShapeGroup" mask="url(#mask-2)"></path>
                <path d="M451.9004,193.6969 C451.9004,195.2399 452.2664,196.4219 452.9994,197.2419 C453.7314,198.0619 454.6344,198.4719 455.7094,198.4719 C456.7834,198.4719 457.6844,198.0619 458.4114,197.2419 C459.1394,196.4219 459.5034,195.2299 459.5034,193.6679 C459.5034,192.1439 459.1394,190.9719 458.4114,190.1519 C457.6844,189.3319 456.7834,188.9219 455.7094,188.9219 C454.6344,188.9219 453.7314,189.3319 452.9994,190.1519 C452.2664,190.9719 451.9004,192.1539 451.9004,193.6969 M447.6814,193.4769 C447.6814,192.1099 448.0184,190.7869 448.6924,189.5079 C449.3664,188.2279 450.3214,187.2519 451.5554,186.5779 C452.7924,185.9039 454.1714,185.5669 455.6944,185.5669 C458.0474,185.5669 459.9764,186.3319 461.4804,187.8599 C462.9844,189.3879 463.7364,191.3189 463.7364,193.6529 C463.7364,196.0069 462.9774,197.9579 461.4584,199.5049 C459.9404,201.0529 458.0284,201.8269 455.7234,201.8269 C454.2974,201.8269 452.9384,201.5049 451.6434,200.8599 C450.3504,200.2159 449.3664,199.2699 448.6924,198.0259 C448.0184,196.7799 447.6814,195.2639 447.6814,193.4769" id="Fill-61" fill="#000000" sketch:type="MSShapeGroup" mask="url(#mask-2)"></path>
                <path d="M470.8994,201.4752 L466.7834,201.4752 L466.7834,185.9182 L470.6064,185.9182 L470.6064,188.1302 C471.2604,187.0852 471.8484,186.3972 472.3724,186.0652 C472.8934,185.7332 473.4874,185.5672 474.1514,185.5672 C475.0884,185.5672 475.9924,185.8262 476.8614,186.3432 L475.5864,189.9322 C474.8934,189.4832 474.2494,189.2582 473.6534,189.2582 C473.0774,189.2582 472.5884,189.4172 472.1884,189.7352 C471.7884,190.0522 471.4734,190.6252 471.2434,191.4552 C471.0144,192.2862 470.8994,194.0242 470.8994,196.6702 L470.8994,201.4752 Z" id="Fill-62" fill="#000000" sketch:type="MSShapeGroup" mask="url(#mask-2)"></path>
                <path d="M487.877,192.3639 C487.848,191.1729 487.54,190.2669 486.954,189.6469 C486.368,189.0269 485.655,188.7169 484.815,188.7169 C483.917,188.7169 483.175,189.0439 482.589,189.6979 C482.003,190.3519 481.715,191.2409 481.725,192.3639 L487.877,192.3639 Z M487.643,196.5239 L491.744,197.2129 C491.217,198.7169 490.384,199.8619 489.247,200.6469 C488.108,201.4339 486.686,201.8269 484.977,201.8269 C482.272,201.8269 480.27,200.9429 478.971,199.1759 C477.945,197.7599 477.433,195.9719 477.433,193.8139 C477.433,191.2359 478.106,189.2179 479.454,187.7569 C480.802,186.2979 482.506,185.5669 484.566,185.5669 C486.881,185.5669 488.707,186.3319 490.045,187.8599 C491.383,189.3879 492.023,191.7289 491.964,194.8839 L481.651,194.8839 C481.681,196.1039 482.013,197.0539 482.648,197.7329 C483.282,198.4119 484.073,198.7509 485.021,198.7509 C485.665,198.7509 486.207,198.5749 486.647,198.2229 C487.086,197.8719 487.418,197.3049 487.643,196.5239 L487.643,196.5239 Z" id="Fill-63" fill="#000000" sketch:type="MSShapeGroup" mask="url(#mask-2)"></path>
                <path d="M496.036,197.359 L500.152,197.359 L500.152,201.475 L496.036,201.475 L496.036,197.359 Z M496.93,195.938 L495.86,185.04 L495.86,180.001 L500.313,180.001 L500.313,185.04 L499.259,195.938 L496.93,195.938 Z" id="Fill-64" fill="#000000" sketch:type="MSShapeGroup" mask="url(#mask-2)"></path>
                <path d="M221.8623,416.6852 C233.1133,416.6852 243.6113,411.9652 253.3303,402.4862 C263.0523,393.0272 267.9303,382.4082 267.9303,370.6312 C267.9303,368.0762 266.1263,364.8682 262.5503,361.0372 C258.9683,357.1992 254.9903,353.3592 250.6483,349.5192 C246.2923,345.6802 242.0743,342.1092 237.9763,338.7672 C233.8793,335.4452 231.0733,333.0132 229.5373,331.4812 C233.6353,331.4812 238.8773,331.7402 245.2813,332.2472 C251.6733,332.7642 257.9393,333.0132 264.0863,333.0132 C276.8783,333.0132 284.3453,330.0742 288.4533,324.1852 C292.5333,318.3062 295.1563,310.2452 295.1563,299.9992 L295.1563,296.1692 C295.1563,285.9252 292.7913,277.6242 289.2103,271.2082 C285.6193,264.8132 278.9513,261.6152 268.2033,261.6152 C261.5493,261.6152 255.0193,262.0072 248.1013,262.7642 C241.2033,263.5312 236.0663,263.9142 232.4803,263.9142 C235.5543,260.3412 239.0623,256.6262 242.9073,252.7882 C246.7423,248.9492 250.6193,245.2432 254.4593,241.6522 C258.2943,238.0722 261.4963,234.6242 264.0573,231.2922 C266.6143,227.9702 267.9123,225.2802 267.9123,223.2302 C267.9123,218.1182 266.8863,212.7462 264.8433,207.1072 C262.7943,201.4772 259.2033,196.1152 254.0993,190.9942 C247.9583,184.8462 241.8163,181.0072 235.6783,179.4742 C229.5313,177.9332 225.1763,177.1672 222.6233,177.1672 C220.0573,177.1672 216.8743,178.7082 213.0293,181.7732 C209.1903,184.8362 205.3513,188.5612 201.5073,192.8982 C197.6773,197.2552 194.0823,201.6012 190.7693,205.9492 C187.4313,210.3052 184.7423,213.5032 182.7023,215.5422 C182.7023,208.9082 182.9563,202.6172 183.4723,196.7382 C183.9803,190.8592 184.2343,185.1052 184.2343,179.4742 C184.2343,167.1812 180.9023,161.3402 174.2583,156.9942 C167.6073,152.6472 159.1543,152.9432 148.9183,152.9432 L145.8643,152.9432 C136.1313,152.9432 128.0703,153.9292 121.6783,157.7492 C115.2593,161.5992 112.0803,167.6502 112.0803,178.3932 C112.0803,184.5392 109.6963,190.1892 110.4713,196.5842 C111.2383,202.9902 108.8633,207.6152 108.8633,211.7032 L108.8633,216.3082 C108.8633,213.2452 105.0913,209.3962 101.2603,204.8002 C97.4123,200.1952 95.0763,195.8472 91.5103,191.7492 C87.9243,187.6522 85.1613,184.1952 81.8293,181.3802 C78.4923,178.5752 76.1613,177.1672 74.1173,177.1672 C64.9063,177.1672 55.8673,180.9982 46.6523,188.6852 L44.4353,190.2172 C33.6883,200.9602 28.3553,212.2202 28.3553,223.9962 C28.3553,226.5532 30.1643,229.7512 33.7553,233.5902 C37.3363,237.4202 41.3003,241.2592 45.6613,245.0992 C50.0123,248.9392 54.2403,252.6542 58.3383,256.2342 C62.4223,259.8252 65.2513,262.3712 66.7873,263.9142 C62.1873,263.9142 56.0403,263.3962 48.3703,262.3712 C40.6873,261.3572 33.5113,260.8492 26.8763,260.8492 C16.6163,260.8492 9.5893,264.3062 5.7493,271.1992 C1.9153,278.1132 0.0003,286.9402 0.0003,297.6832 C0.0003,307.4112 1.9153,315.7312 5.7493,322.6442 C9.5843,329.5562 17.1383,333.0032 28.4033,333.0032 C34.0233,333.0032 40.0363,334.1712 46.4413,333.6642 C52.8373,333.1652 58.0703,334.3252 62.1873,334.3252 L66.7833,334.3252 C65.2513,334.3252 62.4313,336.8622 58.3473,340.1852 C54.2303,343.5262 50.0123,346.3782 45.6763,350.2282 C41.3143,354.0582 37.3553,357.5422 33.7643,361.3722 C30.1883,365.2222 28.3983,368.2472 28.3983,370.8042 C28.3983,376.4432 29.4183,381.3352 31.4673,385.6732 C33.5013,390.0302 37.0873,394.9802 42.2143,400.6102 C46.3073,405.7222 51.6783,409.6772 58.3433,412.4722 C64.9783,415.3062 70.3403,416.6852 74.4523,416.6852" id="Fill-65" fill="#000000" sketch:type="MSShapeGroup" mask="url(#mask-2)"></path>
                <path d="M106.46,257.6422 C120.257,257.6422 131.439,268.8252 131.439,282.6132 C131.439,296.4102 120.257,307.5922 106.46,307.5922 C92.668,307.5922 81.484,296.4102 81.484,282.6132 C81.484,268.8252 92.668,257.6422 106.46,257.6422" id="Fill-66" fill="#000000" sketch:type="MSShapeGroup" mask="url(#mask-2)"></path>
                <path d="M106.4648,265.4743 C97.0098,265.4743 89.3218,273.1613 89.3218,282.6133 C89.3218,292.0623 97.0098,299.7603 106.4648,299.7603 C115.9098,299.7603 123.5978,292.0623 123.5978,282.6133 C123.5978,273.1613 115.9098,265.4743 106.4648,265.4743 M106.4648,315.4343 C88.3688,315.4343 73.6488,300.7083 73.6488,282.6133 C73.6488,264.5263 88.3688,249.8003 106.4648,249.8003 C124.5658,249.8003 139.2778,264.5263 139.2778,282.6133 C139.2778,300.7083 124.5658,315.4343 106.4648,315.4343" id="Fill-67" fill="#E6E6E6" sketch:type="MSShapeGroup" mask="url(#mask-2)"></path>
                <path d="M190.6113,258.0963 C197.8653,258.0963 203.7453,263.9823 203.7453,271.2363 C203.7453,278.4903 197.8653,284.3693 190.6113,284.3693 C183.3573,284.3693 177.4773,278.4903 177.4773,271.2363 C177.4773,263.9823 183.3573,258.0963 190.6113,258.0963" id="Fill-68" fill="#000000" sketch:type="MSShapeGroup" mask="url(#mask-2)"></path>
                <path d="M190.6133,263.5407 C186.3723,263.5407 182.9193,266.9867 182.9193,271.2327 C182.9193,275.4747 186.3723,278.9157 190.6133,278.9157 C194.8563,278.9157 198.3023,275.4747 198.3023,271.2327 C198.3023,266.9867 194.8563,263.5407 190.6133,263.5407 M190.6153,304.0607 C172.5193,304.0607 157.7993,289.3337 157.7993,271.2377 C157.7993,253.1427 172.5193,238.4157 190.6153,238.4157 C208.7123,238.4157 223.4323,253.1427 223.4323,271.2377 C223.4323,289.3337 208.7123,304.0607 190.6153,304.0607" id="Fill-69" fill="#E6E6E6" sketch:type="MSShapeGroup" mask="url(#mask-2)"></path>
                <path d="M162.7305,319.7047 C157.8125,322.8067 152.1115,322.2797 146.1795,319.4557 C132.6845,313.0407 121.7695,334.3727 135.2845,340.7977 C148.3965,347.0207 162.4045,347.8247 175.1585,339.7437 C188.0255,331.6047 175.5505,311.5757 162.7305,319.7047" id="Fill-70" fill="#E6E6E6" sketch:type="MSShapeGroup" mask="url(#mask-2)"></path>
                <path d="M54.0391,226.3424 C54.0391,226.3424 75.5961,241.4894 103.7651,240.1014 C137.7681,238.4354 189.4901,223.7774 189.4901,223.7774 C189.4901,223.7774 335.0101,163.3514 307.3631,149.4394 C287.1891,139.3004 201.0711,176.0094 201.0711,176.0094 C201.0711,176.0094 151.5661,60.9894 108.3851,73.2634 C25.2431,96.8944 54.0391,226.3424 54.0391,226.3424" id="Fill-71" fill="#5E786D" sketch:type="MSShapeGroup" mask="url(#mask-2)"></path>
                <path d="M107.3408,368.0758 L102.3908,578.7828 C102.3908,578.7828 147.0138,613.4818 154.4428,601.0828 C161.8868,588.6928 150.2738,575.8918 137.6248,574.4838 C124.9828,573.0768 117.9588,568.1558 117.9588,568.1558 L123.5788,384.8118 L107.3408,368.0758 Z" id="Fill-72" fill="#000000" sketch:type="MSShapeGroup" mask="url(#mask-2)"></path>
                <path d="M177.1973,369.3102 L172.2423,580.0092 C172.2423,580.0092 216.8693,614.7162 224.2953,602.3282 C231.7443,589.9372 220.1293,577.1172 207.4813,575.7102 C194.8283,574.3122 187.8153,569.3902 187.8153,569.3902 L193.4263,386.0462 L177.1973,369.3102 Z" id="Fill-73" fill="#000000" sketch:type="MSShapeGroup" mask="url(#mask-2)"></path>
                <path d="M363.8037,217.6422 C363.8037,217.6422 370.3667,197.2742 364.8037,231.2382 C348.9417,328.0762 294.0437,366.1932 294.0437,366.1932 C294.0437,366.1932 369.9927,338.2442 396.8987,256.2182 C423.8037,174.1932 363.8037,217.6422 363.8037,217.6422" id="Fill-74" fill="#FFFFFF" sketch:type="MSShapeGroup" mask="url(#mask-2)"></path>
            </g>
        </g>
    </g>
</svg>